<svg xmlns="http://www.w3.org/2000/svg" viewBox="0 0 24 24" id="the-movie-database"><path d="M1.5 24a.503.503 0 0 1-.5-.5V3.884C1 1.597 2.589 0 4.864 0h14.271C21.411 0 23 1.597 23 3.884v14.219c0 2.287-1.589 3.884-3.864 3.884l-13.637-.014a.498.498 0 0 1-.377-.827l1.711-1.973A.496.496 0 0 1 7.211 19h11.923c.704 0 .909-.214.909-1.626V3.155c0-.133-.021-.177-.021-.177-.029.01-.288.03-.478.045-.185.014-.419.003-.597.028H4.676c-.51.002-.675.066-.676.834v17.602a.499.499 0 0 1-.146.353l-2 2.014A.5.5 0 0 1 1.5 24zM4.864 1C3.124 1 2 2.132 2 3.884v18.403l1-1.007V3.884c.001-.786.176-1.83 1.675-1.832h14.273c.159.012.358-.014.52-.025.45-.038.915-.071 1.253.241.216.2.322.491.322.887v14.22c0 .982 0 2.626-1.909 2.626H7.439l-.845.974 12.542.013c1.739 0 2.863-1.132 2.863-2.884V3.884C22 2.132 20.876 1 19.136 1H4.864z"></path><path d="M10.515 5.5H7.6a.5.5 0 1 1 0-1h2.915a.5.5 0 0 1 0 1z"></path><path d="M9 10a.5.5 0 0 1-.5-.5V5a.5.5 0 0 1 1 0v4.5a.5.5 0 0 1-.5.5zm7.5 0a.5.5 0 0 1-.5-.5V6.691l-1.023 1.58a.5.5 0 0 1-.414.229h-.007a.499.499 0 0 1-.412-.217L13 6.613V9.5a.5.5 0 0 1-1 0V5a.501.501 0 0 1 .913-.284l1.633 2.382 1.535-2.37A.498.498 0 0 1 17 5v4.5a.5.5 0 0 1-.5.5zm-7.25 7H7.5a.5.5 0 0 1-.5-.5V12a.5.5 0 0 1 .5-.5h1.75c1.517 0 2.75 1.233 2.75 2.75S10.767 17 9.25 17zM8 16h1.25c.965 0 1.75-.785 1.75-1.75s-.785-1.75-1.75-1.75H8V16zm7.375-1.25H13.5a.5.5 0 0 1-.5-.5V12a.5.5 0 0 1 .5-.5h1.875c.896 0 1.625.729 1.625 1.625s-.729 1.625-1.625 1.625zm-1.375-1h1.375a.625.625 0 0 0 0-1.25H14v1.25z"></path><path d="M15.375 17H13.5a.5.5 0 0 1-.5-.5v-2.25a.5.5 0 0 1 .5-.5h1.875c.896 0 1.625.729 1.625 1.625S16.271 17 15.375 17zM14 16h1.375a.625.625 0 0 0 0-1.25H14V16z"></path></svg>